<svg width="703" height="687" viewBox="0 0 703 687" fill="none" xmlns="http://www.w3.org/2000/svg">
<g filter="url(#filter0_d_9005_927)">
<circle cx="339.151" cy="339.151" r="258.151" fill="url(#paint0_linear_9005_927)"/>
<circle cx="339.151" cy="339.151" r="259.151" stroke="url(#paint1_linear_9005_927)" stroke-width="2"/>
</g>
<path d="M339.149 166.739C434.37 166.739 511.561 243.93 511.562 339.151C511.562 434.371 434.37 511.563 339.149 511.563C243.929 511.563 166.737 434.371 166.737 339.151C166.737 243.93 243.929 166.739 339.149 166.739Z" stroke="url(#paint2_linear_9005_927)" stroke-width="2"/>
<path d="M572.931 345.574C573.895 310.48 566.946 275.618 552.598 243.576C538.251 211.534 516.874 183.133 490.052 160.48C463.231 137.827 431.653 121.504 397.662 112.72C363.671 103.937 328.138 102.919 293.7 109.742C259.262 116.564 226.802 131.053 198.727 152.133C170.652 173.213 147.684 200.344 131.526 231.512C115.367 262.68 106.433 297.086 105.386 332.178C104.34 367.27 111.207 402.148 125.479 434.223" stroke="url(#paint3_linear_9005_927)"/>
<path d="M528.085 339.151C528.085 308.216 520.489 277.754 505.964 250.441C491.439 223.128 470.43 199.799 444.781 182.504C419.132 165.208 389.629 154.476 358.863 151.248C328.097 148.021 297.009 152.397 268.329 163.993" stroke="url(#paint4_linear_9005_927)" stroke-width="2"/>
<path d="M392.327 537.606C423.948 529.133 453.086 513.227 477.315 491.212C501.544 469.197 520.162 441.712 531.617 411.045C543.072 380.378 547.034 347.418 543.171 314.91C539.309 282.403 527.735 251.288 509.412 224.16" stroke="url(#paint5_linear_9005_927)" stroke-width="2"/>
<path d="M471.587 177.356C436.096 148.305 392.037 131.73 346.199 130.184C300.36 128.638 255.285 142.207 217.917 168.8C180.549 195.394 152.963 233.536 139.406 277.352C125.85 321.167 127.077 368.225 142.898 411.274" stroke="url(#paint6_linear_9005_927)"/>
<path d="M118.53 358.604C122.51 403.744 140.241 446.576 169.33 481.323C198.419 516.069 237.465 541.056 281.202 552.912C324.938 564.769 371.259 562.925 413.914 547.628C456.569 532.331 493.506 504.318 519.74 467.369" stroke="url(#paint7_linear_9005_927)"/>
<path d="M195.99 305.205C191.442 324.386 190.795 344.285 194.087 363.721C197.379 383.157 204.543 401.734 215.154 418.347C225.765 434.961 239.606 449.272 255.856 460.432C272.106 471.592 290.432 479.373 309.748 483.313C329.063 487.252 348.973 487.27 368.295 483.365C387.618 479.46 405.958 471.712 422.228 460.581C438.497 449.45 452.364 435.163 463.005 418.569C473.646 401.974 480.843 383.411 484.17 363.981" stroke="url(#paint8_linear_9005_927)"/>
<path d="M387.682 191.533C358.486 181.935 327.099 181.209 297.491 189.449C267.882 197.688 241.382 214.522 221.341 237.823C201.301 261.123 188.619 289.843 184.901 320.35C181.182 350.858 186.594 381.783 200.451 409.215" stroke="url(#paint9_linear_9005_927)"/>
<path d="M339.151 494.541C361.457 494.541 383.501 489.739 403.785 480.462C424.069 471.184 442.118 457.648 456.705 440.774" stroke="url(#paint10_linear_9005_927)"/>
<path d="M103.834 396.183C112.021 429.961 127.383 461.581 148.878 488.893C170.372 516.206 197.495 538.57 228.402 554.468" stroke="url(#paint11_linear_9005_927)"/>
<path d="M510.362 510.362C534.938 485.786 553.935 456.207 566.062 423.635C578.19 391.063 583.162 356.263 580.643 321.598" stroke="url(#paint12_linear_9005_927)"/>
<path d="M339.15 203.912C413.84 203.912 474.389 264.461 474.389 339.151C474.389 413.841 413.841 474.389 339.15 474.389C264.46 474.389 203.912 413.841 203.912 339.151C203.912 264.461 264.46 203.912 339.15 203.912Z" stroke="url(#paint13_linear_9005_927)" stroke-width="2"/>
<circle cx="339.151" cy="339.61" r="108.038" fill="white" stroke="#020617"/>
<circle cx="270.999" cy="246.217" r="44.9346" fill="url(#paint14_linear_9005_927)" stroke="#020617"/>
<path d="M339.151 231.572C370.834 231.572 399.329 245.21 419.092 266.937C379.271 285.063 349.474 265.523 339.536 253.471L338.651 252.397V253.788C338.651 287.899 320.693 309.206 298.201 322.011C275.894 334.711 249.143 339.027 231.115 339.106C231.387 279.67 279.651 231.572 339.151 231.572Z" fill="url(#paint15_linear_9005_927)" stroke="#020617"/>
<path d="M370.867 319.714C374.253 325.315 397.206 331.101 402.254 314.368M281.095 343.618C286.363 351.636 306.116 353.24 310.068 338.273M349.577 407.761C376.969 400.314 383.817 388.622 383.817 383.708" stroke="#020617"/>
<circle cx="387.787" cy="316.809" r="7.5839" fill="#334155" stroke="#020617"/>
<circle cx="296.242" cy="341.875" r="7.5839" fill="#334155" stroke="#020617"/>
<g filter="url(#filter1_dd_9005_927)">
<rect x="528.368" y="134.263" width="166.298" height="166.298" rx="24" transform="rotate(15 528.368 134.263)" fill="white" shape-rendering="crispEdges"/>
<rect x="528.722" y="134.875" width="165.298" height="165.298" rx="23.5" transform="rotate(15 528.722 134.875)" stroke="white" shape-rendering="crispEdges"/>
<g clip-path="url(#clip0_9005_927)">
<path fill-rule="evenodd" clip-rule="evenodd" d="M599.769 230.689C599.92 230.949 600.018 231.237 600.057 231.536C600.097 231.834 600.077 232.137 599.999 232.428C599.921 232.719 599.786 232.992 599.603 233.23C599.419 233.469 599.191 233.669 598.93 233.82L582.109 243.531C581.848 243.682 581.56 243.78 581.262 243.82C580.963 243.859 580.66 243.839 580.369 243.761C580.078 243.684 579.806 243.549 579.567 243.366C579.328 243.182 579.128 242.953 578.978 242.692L574.122 234.282C573.971 234.021 573.874 233.733 573.834 233.435C573.795 233.137 573.815 232.833 573.893 232.543C573.971 232.252 574.105 231.979 574.288 231.741C574.472 231.502 574.7 231.301 574.961 231.151C575.221 231 575.509 230.903 575.808 230.863C576.106 230.824 576.409 230.844 576.7 230.922C576.991 231 577.263 231.134 577.502 231.318C577.741 231.501 577.941 231.729 578.092 231.99L581.8 238.42L596.638 229.85C596.898 229.699 597.186 229.601 597.485 229.561C597.783 229.522 598.086 229.542 598.377 229.62C598.668 229.698 598.941 229.832 599.18 230.016C599.418 230.199 599.618 230.428 599.769 230.689Z" fill="url(#paint16_linear_9005_927)"/>
<path d="M603.718 214.528L600.763 209.262L604.752 207.022L606.748 210.576L610.697 211.582C612.406 212.019 614.01 212.792 615.416 213.858C616.822 214.923 618 216.259 618.882 217.787C619.764 219.314 620.332 221.003 620.552 222.753C620.771 224.503 620.639 226.279 620.162 227.977L619.064 231.901L621.139 235.405C622.038 236.922 622.625 238.603 622.866 240.35C623.106 242.097 622.994 243.874 622.538 245.577C622.082 247.28 621.29 248.875 620.208 250.268C619.127 251.66 617.778 252.823 616.241 253.687L612.687 255.682L611.681 259.631C611.245 261.34 610.471 262.945 609.405 264.35C608.34 265.756 607.004 266.935 605.477 267.817C603.949 268.698 602.261 269.266 600.511 269.486C598.76 269.706 596.984 269.574 595.286 269.097L591.362 267.998L587.858 270.074C586.341 270.973 584.66 271.56 582.913 271.8C581.166 272.04 579.389 271.929 577.686 271.472C575.983 271.016 574.388 270.224 572.996 269.143C571.603 268.061 570.44 266.712 569.577 265.175L567.581 261.621L563.632 260.615C561.923 260.179 560.318 259.405 558.913 258.34C557.507 257.274 556.329 255.939 555.447 254.411C554.565 252.883 553.997 251.195 553.777 249.445C553.557 247.695 553.69 245.918 554.166 244.22L555.265 240.296L553.19 236.792C552.29 235.275 551.703 233.594 551.463 231.848C551.223 230.101 551.334 228.324 551.791 226.62C552.247 224.917 553.039 223.323 554.121 221.93C555.202 220.537 556.551 219.375 558.088 218.511L561.642 216.515L562.648 212.566C563.084 210.857 563.858 209.253 564.923 207.847C565.989 206.441 567.325 205.263 568.852 204.381C570.38 203.499 572.068 202.932 573.818 202.712C575.568 202.492 577.345 202.624 579.043 203.101L582.967 204.199L586.471 202.124C587.988 201.225 589.669 200.638 591.416 200.398C593.162 200.157 594.94 200.269 596.643 200.725C598.346 201.181 599.941 201.974 601.333 203.055C602.726 204.136 603.888 205.485 604.752 207.022L600.763 209.262C600.198 208.256 599.438 207.374 598.527 206.666C597.616 205.959 596.573 205.441 595.459 205.142C594.345 204.844 593.183 204.771 592.04 204.928C590.897 205.085 589.798 205.47 588.806 206.058L583.619 209.142L577.801 207.507C576.69 207.197 575.529 207.111 574.385 207.255C573.241 207.399 572.138 207.771 571.139 208.347C570.141 208.924 569.268 209.695 568.572 210.613C567.875 211.532 567.37 212.581 567.084 213.698L565.593 219.546L560.327 222.5C559.322 223.065 558.44 223.825 557.732 224.736C557.025 225.647 556.506 226.69 556.208 227.804C555.909 228.918 555.837 230.081 555.994 231.223C556.151 232.366 556.535 233.465 557.123 234.457L560.208 239.644L558.573 245.463C558.262 246.573 558.176 247.734 558.321 248.878C558.465 250.022 558.836 251.125 559.413 252.124C559.99 253.122 560.76 253.995 561.679 254.691C562.598 255.388 563.647 255.894 564.764 256.179L570.611 257.67L573.565 262.936C574.13 263.941 574.891 264.824 575.802 265.531C576.712 266.239 577.756 266.757 578.87 267.055C579.984 267.354 581.146 267.427 582.289 267.269C583.431 267.112 584.531 266.728 585.523 266.14L590.71 263.055L596.528 264.69C597.638 265.001 598.8 265.087 599.944 264.943C601.087 264.798 602.191 264.427 603.189 263.85C604.188 263.273 605.061 262.503 605.757 261.584C606.453 260.665 606.959 259.616 607.244 258.499L608.735 252.652L614.001 249.698C615.007 249.133 615.889 248.373 616.597 247.462C617.304 246.551 617.822 245.508 618.121 244.394C618.419 243.28 618.492 242.117 618.335 240.974C618.178 239.832 617.794 238.732 617.205 237.74L614.121 232.553L615.756 226.735C616.067 225.625 616.152 224.464 616.008 223.32C615.864 222.176 615.492 221.072 614.916 220.074C614.339 219.076 613.569 218.203 612.65 217.506C611.731 216.81 610.682 216.304 609.565 216.019L603.718 214.528Z" fill="url(#paint17_linear_9005_927)"/>
</g>
</g>
<defs>
<filter id="filter0_d_9005_927" x="0" y="0" width="686.302" height="686.302" filterUnits="userSpaceOnUse" color-interpolation-filters="sRGB">
<feFlood flood-opacity="0" result="BackgroundImageFix"/>
<feColorMatrix in="SourceAlpha" type="matrix" values="0 0 0 0 0 0 0 0 0 0 0 0 0 0 0 0 0 0 127 0" result="hardAlpha"/>
<feMorphology radius="3" operator="dilate" in="SourceAlpha" result="effect1_dropShadow_9005_927"/>
<feOffset dx="4" dy="4"/>
<feGaussianBlur stdDeviation="40"/>
<feComposite in2="hardAlpha" operator="out"/>
<feColorMatrix type="matrix" values="0 0 0 0 0.956863 0 0 0 0 0.713726 0 0 0 0 0.168627 0 0 0 0.2 0"/>
<feBlend mode="normal" in2="BackgroundImageFix" result="effect1_dropShadow_9005_927"/>
<feBlend mode="normal" in="SourceGraphic" in2="effect1_dropShadow_9005_927" result="shape"/>
</filter>
<filter id="filter1_dd_9005_927" x="465.327" y="116.263" width="243.673" height="262.673" filterUnits="userSpaceOnUse" color-interpolation-filters="sRGB">
<feFlood flood-opacity="0" result="BackgroundImageFix"/>
<feColorMatrix in="SourceAlpha" type="matrix" values="0 0 0 0 0 0 0 0 0 0 0 0 0 0 0 0 0 0 127 0" result="hardAlpha"/>
<feMorphology radius="5" operator="erode" in="SourceAlpha" result="effect1_dropShadow_9005_927"/>
<feOffset dy="25"/>
<feGaussianBlur stdDeviation="10.5"/>
<feComposite in2="hardAlpha" operator="out"/>
<feColorMatrix type="matrix" values="0 0 0 0 0.00784314 0 0 0 0 0.0235294 0 0 0 0 0.0901961 0 0 0 0.1 0"/>
<feBlend mode="normal" in2="BackgroundImageFix" result="effect1_dropShadow_9005_927"/>
<feColorMatrix in="SourceAlpha" type="matrix" values="0 0 0 0 0 0 0 0 0 0 0 0 0 0 0 0 0 0 127 0" result="hardAlpha"/>
<feMorphology radius="5" operator="erode" in="SourceAlpha" result="effect2_dropShadow_9005_927"/>
<feOffset dy="2"/>
<feGaussianBlur stdDeviation="12.5"/>
<feComposite in2="hardAlpha" operator="out"/>
<feColorMatrix type="matrix" values="0 0 0 0 0.00784314 0 0 0 0 0.0235294 0 0 0 0 0.0901961 0 0 0 0.15 0"/>
<feBlend mode="normal" in2="effect1_dropShadow_9005_927" result="effect2_dropShadow_9005_927"/>
<feBlend mode="normal" in="SourceGraphic" in2="effect2_dropShadow_9005_927" result="shape"/>
</filter>
<linearGradient id="paint0_linear_9005_927" x1="339.151" y1="81" x2="339.151" y2="597.302" gradientUnits="userSpaceOnUse">
<stop stop-color="white"/>
<stop offset="1" stop-color="white"/>
</linearGradient>
<linearGradient id="paint1_linear_9005_927" x1="339.151" y1="81" x2="339.151" y2="597.302" gradientUnits="userSpaceOnUse">
<stop stop-color="#C8DBBB"/>
<stop offset="1" stop-color="#A6C492"/>
</linearGradient>
<linearGradient id="paint2_linear_9005_927" x1="339.149" y1="167.739" x2="339.149" y2="510.563" gradientUnits="userSpaceOnUse">
<stop stop-color="#668E4F"/>
<stop offset="1" stop-color="#A6C492"/>
</linearGradient>
<linearGradient id="paint3_linear_9005_927" x1="339.151" y1="105.782" x2="339.151" y2="572.519" gradientUnits="userSpaceOnUse">
<stop stop-color="#4F868E"/>
<stop offset="1" stop-color="#9AC2C6"/>
</linearGradient>
<linearGradient id="paint4_linear_9005_927" x1="339.151" y1="151.217" x2="339.151" y2="527.085" gradientUnits="userSpaceOnUse">
<stop stop-color="#DFECEE"/>
<stop offset="1" stop-color="#9AC2C6"/>
</linearGradient>
<linearGradient id="paint5_linear_9005_927" x1="339.151" y1="134.695" x2="339.151" y2="543.606" gradientUnits="userSpaceOnUse">
<stop stop-color="#DFECEE"/>
<stop offset="1" stop-color="#9AC2C6"/>
</linearGradient>
<linearGradient id="paint6_linear_9005_927" x1="339.151" y1="130.565" x2="339.151" y2="547.737" gradientUnits="userSpaceOnUse">
<stop stop-color="#E3ECDB"/>
<stop offset="1" stop-color="#668E4F"/>
</linearGradient>
<linearGradient id="paint7_linear_9005_927" x1="339.151" y1="118.174" x2="339.151" y2="560.128" gradientUnits="userSpaceOnUse">
<stop stop-color="#DFECEE"/>
<stop offset="1" stop-color="#9AC2C6"/>
</linearGradient>
<linearGradient id="paint8_linear_9005_927" x1="339.15" y1="192.521" x2="339.15" y2="485.781" gradientUnits="userSpaceOnUse">
<stop stop-color="#DFECEE"/>
<stop offset="1" stop-color="#9AC2C6"/>
</linearGradient>
<linearGradient id="paint9_linear_9005_927" x1="339.15" y1="184.26" x2="339.15" y2="494.041" gradientUnits="userSpaceOnUse">
<stop stop-color="#DFECEE"/>
<stop offset="1" stop-color="#9AC2C6"/>
</linearGradient>
<linearGradient id="paint10_linear_9005_927" x1="494.042" y1="339.151" x2="184.261" y2="339.151" gradientUnits="userSpaceOnUse">
<stop stop-color="#E3ECDB"/>
<stop offset="1" stop-color="#A6C492"/>
</linearGradient>
<linearGradient id="paint11_linear_9005_927" x1="580.78" y1="339.151" x2="97.5215" y2="339.151" gradientUnits="userSpaceOnUse">
<stop stop-color="#E3ECDB"/>
<stop offset="1" stop-color="#668E4F"/>
</linearGradient>
<linearGradient id="paint12_linear_9005_927" x1="580.78" y1="339.151" x2="97.5215" y2="339.151" gradientUnits="userSpaceOnUse">
<stop stop-color="#DFECEE"/>
<stop offset="1" stop-color="#9AC2C6"/>
</linearGradient>
<linearGradient id="paint13_linear_9005_927" x1="339.151" y1="204.912" x2="339.151" y2="473.389" gradientUnits="userSpaceOnUse">
<stop stop-color="#9AC2C6"/>
<stop offset="1" stop-color="#4F868E"/>
</linearGradient>
<linearGradient id="paint14_linear_9005_927" x1="270.999" y1="200.782" x2="270.999" y2="291.651" gradientUnits="userSpaceOnUse">
<stop stop-color="#0F172A"/>
<stop offset="1" stop-color="#334155"/>
</linearGradient>
<linearGradient id="paint15_linear_9005_927" x1="325.268" y1="231.072" x2="325.268" y2="339.61" gradientUnits="userSpaceOnUse">
<stop stop-color="#0F172A"/>
<stop offset="1" stop-color="#334155"/>
</linearGradient>
<linearGradient id="paint16_linear_9005_927" x1="596.643" y1="200.725" x2="577.686" y2="271.472" gradientUnits="userSpaceOnUse">
<stop stop-color="#668E4F"/>
<stop offset="1" stop-color="#A6C492"/>
</linearGradient>
<linearGradient id="paint17_linear_9005_927" x1="596.643" y1="200.725" x2="577.686" y2="271.472" gradientUnits="userSpaceOnUse">
<stop stop-color="#668E4F"/>
<stop offset="1" stop-color="#A6C492"/>
</linearGradient>
<clipPath id="clip0_9005_927">
<rect width="73.2505" height="73.2505" fill="white" transform="translate(561.266 191.242) rotate(15)"/>
</clipPath>
</defs>
</svg>
