<svg width="355" height="12" viewBox="0 0 355 12" fill="none" xmlns="http://www.w3.org/2000/svg">
<path d="M355 5.7735L345 -4.29153e-06V11.547L355 5.7735ZM0 5.7735V6.7735H2.95833V5.7735V4.7735H0V5.7735ZM8.875 5.7735V6.7735H14.7917V5.7735V4.7735H8.875V5.7735ZM20.7083 5.7735V6.7735H26.625V5.7735V4.7735H20.7083V5.7735ZM32.5417 5.7735V6.7735H38.4583V5.7735V4.7735H32.5417V5.7735ZM44.375 5.7735V6.7735H50.2917V5.7735V4.7735H44.375V5.7735ZM56.2083 5.7735V6.7735H62.125V5.7735V4.7735H56.2083V5.7735ZM68.0417 5.7735V6.7735H73.9583V5.7735V4.7735H68.0417V5.7735ZM79.875 5.7735V6.7735H85.7917V5.7735V4.7735H79.875V5.7735ZM91.7083 5.7735V6.7735H97.625V5.7735V4.7735H91.7083V5.7735ZM103.542 5.7735V6.7735H109.458V5.7735V4.7735H103.542V5.7735ZM115.375 5.7735V6.7735H121.292V5.7735V4.7735H115.375V5.7735ZM127.208 5.7735V6.7735H133.125V5.7735V4.7735H127.208V5.7735ZM139.042 5.7735V6.7735H144.958V5.7735V4.7735H139.042V5.7735ZM150.875 5.7735V6.7735H156.792V5.7735V4.7735H150.875V5.7735ZM162.708 5.7735V6.7735H168.625V5.7735V4.7735H162.708V5.7735ZM174.542 5.7735V6.7735H180.458V5.7735V4.7735H174.542V5.7735ZM186.375 5.7735V6.7735H192.292V5.7735V4.7735H186.375V5.7735ZM198.208 5.7735V6.7735H204.125V5.7735V4.7735H198.208V5.7735ZM210.042 5.7735V6.7735H215.958V5.7735V4.7735H210.042V5.7735ZM221.875 5.7735V6.7735H227.792V5.7735V4.7735H221.875V5.7735ZM233.708 5.7735V6.7735H239.625V5.7735V4.7735H233.708V5.7735ZM245.542 5.7735V6.7735H251.458V5.7735V4.7735H245.542V5.7735ZM257.375 5.7735V6.7735H263.292V5.7735V4.7735H257.375V5.7735ZM269.208 5.7735V6.7735H275.125V5.7735V4.7735H269.208V5.7735ZM281.042 5.7735V6.7735H286.958V5.7735V4.7735H281.042V5.7735ZM292.875 5.7735V6.7735H298.792V5.7735V4.7735H292.875V5.7735ZM304.708 5.7735V6.7735H310.625V5.7735V4.7735H304.708V5.7735ZM316.542 5.7735V6.7735H322.458V5.7735V4.7735H316.542V5.7735ZM328.375 5.7735V6.7735H334.292V5.7735V4.7735H328.375V5.7735ZM340.208 5.7735V6.7735H346.125V5.7735V4.7735H340.208V5.7735ZM355 5.7735L345 -4.29153e-06V11.547L355 5.7735ZM0 5.7735V6.7735H2.95833V5.7735V4.7735H0V5.7735ZM8.875 5.7735V6.7735H14.7917V5.7735V4.7735H8.875V5.7735ZM20.7083 5.7735V6.7735H26.625V5.7735V4.7735H20.7083V5.7735ZM32.5417 5.7735V6.7735H38.4583V5.7735V4.7735H32.5417V5.7735ZM44.375 5.7735V6.7735H50.2917V5.7735V4.7735H44.375V5.7735ZM56.2083 5.7735V6.7735H62.125V5.7735V4.7735H56.2083V5.7735ZM68.0417 5.7735V6.7735H73.9583V5.7735V4.7735H68.0417V5.7735ZM79.875 5.7735V6.7735H85.7917V5.7735V4.7735H79.875V5.7735ZM91.7083 5.7735V6.7735H97.625V5.7735V4.7735H91.7083V5.7735ZM103.542 5.7735V6.7735H109.458V5.7735V4.7735H103.542V5.7735ZM115.375 5.7735V6.7735H121.292V5.7735V4.7735H115.375V5.7735ZM127.208 5.7735V6.7735H133.125V5.7735V4.7735H127.208V5.7735ZM139.042 5.7735V6.7735H144.958V5.7735V4.7735H139.042V5.7735ZM150.875 5.7735V6.7735H156.792V5.7735V4.7735H150.875V5.7735ZM162.708 5.7735V6.7735H168.625V5.7735V4.7735H162.708V5.7735ZM174.542 5.7735V6.7735H180.458V5.7735V4.7735H174.542V5.7735ZM186.375 5.7735V6.7735H192.292V5.7735V4.7735H186.375V5.7735ZM198.208 5.7735V6.7735H204.125V5.7735V4.7735H198.208V5.7735ZM210.042 5.7735V6.7735H215.958V5.7735V4.7735H210.042V5.7735ZM221.875 5.7735V6.7735H227.792V5.7735V4.7735H221.875V5.7735ZM233.708 5.7735V6.7735H239.625V5.7735V4.7735H233.708V5.7735ZM245.542 5.7735V6.7735H251.458V5.7735V4.7735H245.542V5.7735ZM257.375 5.7735V6.7735H263.292V5.7735V4.7735H257.375V5.7735ZM269.208 5.7735V6.7735H275.125V5.7735V4.7735H269.208V5.7735ZM281.042 5.7735V6.7735H286.958V5.7735V4.7735H281.042V5.7735ZM292.875 5.7735V6.7735H298.792V5.7735V4.7735H292.875V5.7735ZM304.708 5.7735V6.7735H310.625V5.7735V4.7735H304.708V5.7735ZM316.542 5.7735V6.7735H322.458V5.7735V4.7735H316.542V5.7735ZM328.375 5.7735V6.7735H334.292V5.7735V4.7735H328.375V5.7735ZM340.208 5.7735V6.7735H346.125V5.7735V4.7735H340.208V5.7735Z" fill="url(#paint0_linear_9004_909)"/>
<defs>
<linearGradient id="paint0_linear_9004_909" x1="0" y1="6.2735" x2="355" y2="6.2735" gradientUnits="userSpaceOnUse">
<stop stop-color="transparent"/>
<stop offset="1" stop-color="#A6C492"/>
</linearGradient>
</defs>
</svg>
