<svg width="32" height="32" viewBox="0 0 32 32" fill="none" xmlns="http://www.w3.org/2000/svg">
<g clip-path="url(#clip0_9215_14)">
<g filter="url(#filter0_i_9215_14)">
<path d="M6.10058 6.10029C4.80041 7.40033 3.76905 8.94375 3.0654 10.6424C2.36174 12.341 1.99957 14.1617 1.99957 16.0003C1.99957 17.8389 2.36174 19.6595 3.0654 21.3582C3.76905 23.0568 4.80041 24.6003 6.10058 25.9003C6.28274 26.0889 6.38354 26.3415 6.38126 26.6037C6.37898 26.8659 6.27381 27.1167 6.0884 27.3021C5.90299 27.4875 5.65218 27.5927 5.38998 27.595C5.12779 27.5972 4.87519 27.4965 4.68658 27.3143C3.20076 25.8285 2.02213 24.0647 1.21801 22.1234C0.41388 20.1822 0 18.1015 0 16.0003C0 13.8991 0.41388 11.8184 1.21801 9.87717C2.02213 7.93591 3.20076 6.17204 4.68658 4.68629C4.87519 4.50414 5.12779 4.40334 5.38998 4.40562C5.65218 4.4079 5.90299 4.51307 6.0884 4.69848C6.27381 4.88388 6.37898 5.1347 6.38126 5.39689C6.38354 5.65909 6.28274 5.91169 6.10058 6.10029ZM10.3446 10.3443C8.84481 11.8445 8.00229 13.879 8.00229 16.0003C8.00229 18.1216 8.84481 20.1561 10.3446 21.6563C10.4376 21.7493 10.5113 21.8597 10.5616 21.9811C10.6119 22.1026 10.6378 22.2328 10.6378 22.3643C10.6378 22.4958 10.6119 22.626 10.5616 22.7475C10.5113 22.8689 10.4376 22.9793 10.3446 23.0723C10.2516 23.1653 10.1412 23.239 10.0197 23.2893C9.89827 23.3397 9.76807 23.3656 9.63658 23.3656C9.50509 23.3656 9.37489 23.3397 9.25342 23.2893C9.13194 23.239 9.02156 23.1653 8.92858 23.0723C7.99972 22.1437 7.26289 21.0412 6.76018 19.8277C6.25746 18.6143 5.99872 17.3137 5.99872 16.0003C5.99872 14.6869 6.25746 13.3863 6.76018 12.1729C7.26289 10.9594 7.99972 9.85692 8.92858 8.9283C9.11636 8.74052 9.37103 8.63503 9.63658 8.63503C9.90213 8.63503 10.1568 8.74052 10.3446 8.9283C10.5324 9.11607 10.6378 9.37074 10.6378 9.63629C10.6378 9.90185 10.5324 10.1565 10.3446 10.3443ZM21.6566 8.9283C21.7495 8.83517 21.8598 8.76128 21.9813 8.71087C22.1028 8.66046 22.233 8.63451 22.3646 8.63451C22.4961 8.63451 22.6264 8.66046 22.7479 8.71087C22.8693 8.76128 22.9797 8.83517 23.0726 8.9283C24.0014 9.85692 24.7383 10.9594 25.241 12.1729C25.7437 13.3863 26.0024 14.6869 26.0024 16.0003C26.0024 17.3137 25.7437 18.6143 25.241 19.8277C24.7383 21.0412 24.0014 22.1437 23.0726 23.0723C22.9796 23.1653 22.8692 23.239 22.7478 23.2893C22.6263 23.3397 22.4961 23.3656 22.3646 23.3656C22.2331 23.3656 22.1029 23.3397 21.9814 23.2893C21.8599 23.239 21.7496 23.1653 21.6566 23.0723C21.5636 22.9793 21.4899 22.8689 21.4395 22.7475C21.3892 22.626 21.3633 22.4958 21.3633 22.3643C21.3633 22.2328 21.3892 22.1026 21.4395 21.9811C21.4899 21.8597 21.5636 21.7493 21.6566 21.6563C23.1564 20.1561 23.9989 18.1216 23.9989 16.0003C23.9989 13.879 23.1564 11.8445 21.6566 10.3443C21.5635 10.2514 21.4896 10.1411 21.4392 10.0196C21.3887 9.89807 21.3628 9.76783 21.3628 9.63629C21.3628 9.50476 21.3887 9.37452 21.4392 9.25303C21.4896 9.13154 21.5635 9.02119 21.6566 8.9283ZM25.9006 4.68829C26.0881 4.50082 26.3424 4.39551 26.6076 4.39551C26.8727 4.39551 27.1271 4.50082 27.3146 4.68829C30.3147 7.68882 32.0002 11.7582 32.0002 16.0013C32.0002 20.2444 30.3147 24.3138 27.3146 27.3143C27.126 27.4965 26.8734 27.5972 26.6112 27.595C26.349 27.5927 26.0982 27.4875 25.9128 27.3021C25.7274 27.1167 25.6222 26.8659 25.6199 26.6037C25.6176 26.3415 25.7184 26.0889 25.9006 25.9003C27.2008 24.6003 28.2321 23.0568 28.9358 21.3582C29.6394 19.6595 30.0016 17.8389 30.0016 16.0003C30.0016 14.1617 29.6394 12.341 28.9358 10.6424C28.2321 8.94375 27.2008 7.40033 25.9006 6.10029C25.7131 5.91277 25.6078 5.65846 25.6078 5.39329C25.6078 5.12813 25.7131 4.87382 25.9006 4.68629V4.68829ZM12.0006 16.0003C12.0008 15.2522 12.2107 14.5192 12.6067 13.8844C13.0026 13.2497 13.5685 12.7387 14.2403 12.4095C14.9121 12.0802 15.6627 11.946 16.4069 12.022C17.1511 12.098 17.8591 12.3812 18.4505 12.8393C19.0418 13.2975 19.4929 13.9124 19.7523 14.614C20.0118 15.3157 20.0693 16.076 19.9182 16.8087C19.7672 17.5414 19.4138 18.2171 18.898 18.759C18.3823 19.3009 17.7249 19.6873 17.0006 19.8743V31.0003C17.0006 31.2655 16.8952 31.5199 16.7077 31.7074C16.5202 31.8949 16.2658 32.0003 16.0006 32.0003C15.7354 32.0003 15.481 31.8949 15.2935 31.7074C15.1059 31.5199 15.0006 31.2655 15.0006 31.0003V19.8743C14.1418 19.6526 13.3811 19.1517 12.838 18.4504C12.2949 17.7491 12.0004 16.8873 12.0006 16.0003Z" fill="#668E4F"/>
</g>
</g>
<defs>
<filter id="filter0_i_9215_14" x="0" y="4.39551" width="33" height="28.6048" filterUnits="userSpaceOnUse" color-interpolation-filters="sRGB">
<feFlood flood-opacity="0" result="BackgroundImageFix"/>
<feBlend mode="normal" in="SourceGraphic" in2="BackgroundImageFix" result="shape"/>
<feColorMatrix in="SourceAlpha" type="matrix" values="0 0 0 0 0 0 0 0 0 0 0 0 0 0 0 0 0 0 127 0" result="hardAlpha"/>
<feOffset dx="1" dy="1"/>
<feGaussianBlur stdDeviation="1"/>
<feComposite in2="hardAlpha" operator="arithmetic" k2="-1" k3="1"/>
<feColorMatrix type="matrix" values="0 0 0 0 0.00784314 0 0 0 0 0.0235294 0 0 0 0 0.0901961 0 0 0 0.25 0"/>
<feBlend mode="normal" in2="shape" result="effect1_innerShadow_9215_14"/>
</filter>
<clipPath id="clip0_9215_14">
<rect width="32" height="32" fill="white"/>
</clipPath>
</defs>
</svg>
