<svg width="32" height="32" viewBox="0 0 32 32" fill="none" xmlns="http://www.w3.org/2000/svg">
<g clip-path="url(#clip0_9215_31)">
<g filter="url(#filter0_i_9215_31)">
<path d="M3 2C2.73478 2 2.48043 2.10536 2.29289 2.29289C2.10536 2.48043 2 2.73478 2 3V9C2 9.26522 1.89464 9.51957 1.70711 9.70711C1.51957 9.89464 1.26522 10 1 10C0.734784 10 0.48043 9.89464 0.292893 9.70711C0.105357 9.51957 0 9.26522 0 9V3C0 2.20435 0.31607 1.44129 0.87868 0.87868C1.44129 0.31607 2.20435 0 3 0H9C9.26522 0 9.51957 0.105357 9.70711 0.292893C9.89464 0.48043 10 0.734784 10 1C10 1.26522 9.89464 1.51957 9.70711 1.70711C9.51957 1.89464 9.26522 2 9 2H3ZM22 1C22 0.734784 22.1054 0.48043 22.2929 0.292893C22.4804 0.105357 22.7348 0 23 0H29C29.7956 0 30.5587 0.31607 31.1213 0.87868C31.6839 1.44129 32 2.20435 32 3V9C32 9.26522 31.8946 9.51957 31.7071 9.70711C31.5196 9.89464 31.2652 10 31 10C30.7348 10 30.4804 9.89464 30.2929 9.70711C30.1054 9.51957 30 9.26522 30 9V3C30 2.73478 29.8946 2.48043 29.7071 2.29289C29.5196 2.10536 29.2652 2 29 2H23C22.7348 2 22.4804 1.89464 22.2929 1.70711C22.1054 1.51957 22 1.26522 22 1ZM1 22C1.26522 22 1.51957 22.1054 1.70711 22.2929C1.89464 22.4804 2 22.7348 2 23V29C2 29.2652 2.10536 29.5196 2.29289 29.7071C2.48043 29.8946 2.73478 30 3 30H9C9.26522 30 9.51957 30.1054 9.70711 30.2929C9.89464 30.4804 10 30.7348 10 31C10 31.2652 9.89464 31.5196 9.70711 31.7071C9.51957 31.8946 9.26522 32 9 32H3C2.20435 32 1.44129 31.6839 0.87868 31.1213C0.31607 30.5587 0 29.7956 0 29V23C0 22.7348 0.105357 22.4804 0.292893 22.2929C0.48043 22.1054 0.734784 22 1 22ZM31 22C31.2652 22 31.5196 22.1054 31.7071 22.2929C31.8946 22.4804 32 22.7348 32 23V29C32 29.7956 31.6839 30.5587 31.1213 31.1213C30.5587 31.6839 29.7956 32 29 32H23C22.7348 32 22.4804 31.8946 22.2929 31.7071C22.1054 31.5196 22 31.2652 22 31C22 30.7348 22.1054 30.4804 22.2929 30.2929C22.4804 30.1054 22.7348 30 23 30H29C29.2652 30 29.5196 29.8946 29.7071 29.7071C29.8946 29.5196 30 29.2652 30 29V23C30 22.7348 30.1054 22.4804 30.2929 22.2929C30.4804 22.1054 30.7348 22 31 22Z" fill="#668E4F"/>
<path d="M6 28C6 28 4 28 4 26C4 24 6 18 16 18C26 18 28 24 28 26C28 28 26 28 26 28H6ZM22 10C22 11.5913 21.3679 13.1174 20.2426 14.2426C19.1174 15.3679 17.5913 16 16 16C14.4087 16 12.8826 15.3679 11.7574 14.2426C10.6321 13.1174 10 11.5913 10 10C10 8.4087 10.6321 6.88258 11.7574 5.75736C12.8826 4.63214 14.4087 4 16 4C17.5913 4 19.1174 4.63214 20.2426 5.75736C21.3679 6.88258 22 8.4087 22 10Z" fill="#668E4F"/>
</g>
</g>
<defs>
<filter id="filter0_i_9215_31" x="0" y="0" width="33" height="33" filterUnits="userSpaceOnUse" color-interpolation-filters="sRGB">
<feFlood flood-opacity="0" result="BackgroundImageFix"/>
<feBlend mode="normal" in="SourceGraphic" in2="BackgroundImageFix" result="shape"/>
<feColorMatrix in="SourceAlpha" type="matrix" values="0 0 0 0 0 0 0 0 0 0 0 0 0 0 0 0 0 0 127 0" result="hardAlpha"/>
<feOffset dx="1" dy="1"/>
<feGaussianBlur stdDeviation="1"/>
<feComposite in2="hardAlpha" operator="arithmetic" k2="-1" k3="1"/>
<feColorMatrix type="matrix" values="0 0 0 0 0.00784314 0 0 0 0 0.0235294 0 0 0 0 0.0901961 0 0 0 0.25 0"/>
<feBlend mode="normal" in2="shape" result="effect1_innerShadow_9215_31"/>
</filter>
<clipPath id="clip0_9215_31">
<rect width="32" height="32" fill="white"/>
</clipPath>
</defs>
</svg>
