<svg width="32" height="32" viewBox="0 0 32 32" fill="none" xmlns="http://www.w3.org/2000/svg">
<g clip-path="url(#clip0_9215_43)">
<g filter="url(#filter0_i_9215_43)">
<path d="M5 8C5.26522 8 5.51957 7.89464 5.70711 7.70711C5.89464 7.51957 6 7.26522 6 7C6 6.73478 5.89464 6.48043 5.70711 6.29289C5.51957 6.10536 5.26522 6 5 6C4.73478 6 4.48043 6.10536 4.29289 6.29289C4.10536 6.48043 4 6.73478 4 7C4 7.26522 4.10536 7.51957 4.29289 7.70711C4.48043 7.89464 4.73478 8 5 8ZM9 7C9 7.26522 8.89464 7.51957 8.70711 7.70711C8.51957 7.89464 8.26522 8 8 8C7.73478 8 7.48043 7.89464 7.29289 7.70711C7.10536 7.51957 7 7.26522 7 7C7 6.73478 7.10536 6.48043 7.29289 6.29289C7.48043 6.10536 7.73478 6 8 6C8.26522 6 8.51957 6.10536 8.70711 6.29289C8.89464 6.48043 9 6.73478 9 7ZM11 8C11.2652 8 11.5196 7.89464 11.7071 7.70711C11.8946 7.51957 12 7.26522 12 7C12 6.73478 11.8946 6.48043 11.7071 6.29289C11.5196 6.10536 11.2652 6 11 6C10.7348 6 10.4804 6.10536 10.2929 6.29289C10.1054 6.48043 10 6.73478 10 7C10 7.26522 10.1054 7.51957 10.2929 7.70711C10.4804 7.89464 10.7348 8 11 8Z" fill="#668E4F"/>
<path d="M4 2C2.93913 2 1.92172 2.42143 1.17157 3.17157C0.421427 3.92172 0 4.93913 0 6V26C0 27.0609 0.421427 28.0783 1.17157 28.8284C1.92172 29.5786 2.93913 30 4 30H28C29.0609 30 30.0783 29.5786 30.8284 28.8284C31.5786 28.0783 32 27.0609 32 26V6C32 4.93913 31.5786 3.92172 30.8284 3.17157C30.0783 2.42143 29.0609 2 28 2H4ZM28 4C28.5304 4 29.0391 4.21071 29.4142 4.58579C29.7893 4.96086 30 5.46957 30 6V10H2V6C2 5.46957 2.21071 4.96086 2.58579 4.58579C2.96086 4.21071 3.46957 4 4 4H28ZM2 26V12H10V28H4C3.46957 28 2.96086 27.7893 2.58579 27.4142C2.21071 27.0391 2 26.5304 2 26ZM12 28V12H30V26C30 26.5304 29.7893 27.0391 29.4142 27.4142C29.0391 27.7893 28.5304 28 28 28H12Z" fill="#668E4F"/>
</g>
</g>
<defs>
<filter id="filter0_i_9215_43" x="0" y="2" width="33" height="29" filterUnits="userSpaceOnUse" color-interpolation-filters="sRGB">
<feFlood flood-opacity="0" result="BackgroundImageFix"/>
<feBlend mode="normal" in="SourceGraphic" in2="BackgroundImageFix" result="shape"/>
<feColorMatrix in="SourceAlpha" type="matrix" values="0 0 0 0 0 0 0 0 0 0 0 0 0 0 0 0 0 0 127 0" result="hardAlpha"/>
<feOffset dx="1" dy="1"/>
<feGaussianBlur stdDeviation="1"/>
<feComposite in2="hardAlpha" operator="arithmetic" k2="-1" k3="1"/>
<feColorMatrix type="matrix" values="0 0 0 0 0.00784314 0 0 0 0 0.0235294 0 0 0 0 0.0901961 0 0 0 0.25 0"/>
<feBlend mode="normal" in2="shape" result="effect1_innerShadow_9215_43"/>
</filter>
<clipPath id="clip0_9215_43">
<rect width="32" height="32" fill="white"/>
</clipPath>
</defs>
</svg>
