<svg width="64" height="64" viewBox="0 0 64 64" fill="none" xmlns="http://www.w3.org/2000/svg">
<path d="M0 8C0 3.58172 3.58172 0 8 0H56C60.4183 0 64 3.58172 64 8V56C64 60.4183 60.4183 64 56 64H8C3.58172 64 0 60.4183 0 56V8Z" fill="#162112"/>
<path d="M26.1989 54.9681C25.4679 55.4323 24.7038 55.5926 23.9066 55.4492C23.1213 55.2518 22.4939 54.7918 22.0245 54.0691L10.3969 37.979C9.98082 37.1808 9.89189 36.4135 10.1301 35.6773C10.4034 34.9232 10.9261 34.3494 11.6984 33.9559C12.5058 33.5446 13.2818 33.4567 14.0265 33.6922C14.7712 33.9276 15.3516 34.4445 15.7676 35.2427L24.3085 46.5316L27.1082 50.8411C27.5777 51.5638 27.7399 52.3192 27.5948 53.1073C27.5682 53.2282 27.5339 53.3456 27.492 53.4595C27.2718 54.0576 26.8408 54.5605 26.1989 54.9681Z" fill="#668E4F"/>
<path d="M24.3085 46.5316L27.1082 50.8411C27.5777 51.5638 27.7399 52.3192 27.5948 53.1073C27.5682 53.2282 27.5339 53.3456 27.492 53.4595L53.6716 12.7705C54.049 11.9537 54.1011 11.1832 53.828 10.4589C53.5548 9.73467 53.0052 9.18597 52.179 8.81285C51.3888 8.45595 50.6094 8.40442 49.8409 8.65824C49.1083 8.92828 48.5533 9.47168 48.1759 10.2884L24.3085 46.5316Z" fill="#668E4F"/>
</svg>
